<?xml version="1.0" standalone="no"?>
<!DOCTYPE svg PUBLIC "-//W3C//DTD SVG 20010904//EN"
 "http://www.w3.org/TR/2001/REC-SVG-20010904/DTD/svg10.dtd">
<svg version="1.0" xmlns="http://www.w3.org/2000/svg"
 width="307.000000pt" height="307.000000pt" viewBox="0 0 307.000000 307.000000"
 preserveAspectRatio="xMidYMid meet">
<metadata>
Created by potrace 1.11, written by Peter Selinger 2001-2013
</metadata>
<g transform="translate(0.000000,307.000000) scale(0.100000,-0.100000)"
fill="#000000" stroke="none">
<path d="M305 3056 c-74 -19 -133 -52 -187 -108 -54 -56 -78 -97 -102 -177
-14 -49 -16 -179 -16 -1240 0 -1267 -1 -1221 49 -1319 27 -53 111 -136 164
-164 96 -49 68 -47 1302 -48 712 0 1183 4 1219 10 153 25 263 123 320 287 12
35 15 215 15 1220 0 688 -4 1198 -10 1227 -14 77 -51 147 -107 203 -59 60
-113 91 -192 109 -78 19 -2380 19 -2455 0z"/>
</g>
</svg>
